<?xml version="1.0" standalone="no"?>
<!DOCTYPE svg PUBLIC "-//W3C//DTD SVG 20010904//EN"
 "http://www.w3.org/TR/2001/REC-SVG-20010904/DTD/svg10.dtd">
<svg version="1.0" xmlns="http://www.w3.org/2000/svg"
 width="500.000000pt" height="500.000000pt" viewBox="0 0 500.000000 500.000000"
 preserveAspectRatio="xMidYMid meet">
<metadata>
Created by potrace 1.11, written by Peter Selinger 2001-2013
</metadata>
<g transform="translate(0.000000,500.000000) scale(0.100000,-0.100000)"
fill="#000000" stroke="none">
<path d="M2270 3725 c-334 -87 -583 -336 -678 -677 -13 -48 -17 -102 -17 -230
0 -91 3 -170 8 -174 4 -4 49 13 100 38 126 63 171 73 312 72 138 0 222 -19
378 -84 53 -22 110 -40 126 -40 16 0 73 19 127 41 271 114 469 117 681 11 51
-25 96 -42 100 -38 4 4 8 80 8 169 0 138 -4 174 -23 240 -81 284 -260 498
-514 617 -176 82 -417 104 -608 55z"/>
<path d="M1830 2714 c-72 -18 -340 -152 -340 -170 0 -31 41 -34 448 -34 l410
0 16 -25 c57 -87 205 -87 262 0 l16 25 410 0 c407 0 448 3 448 34 0 18 -270
152 -345 171 -151 38 -359 11 -557 -74 -54 -23 -100 -41 -103 -41 -3 0 -49 18
-103 41 -149 64 -263 89 -396 88 -62 0 -135 -7 -166 -15z"/>
<path d="M675 2048 c-23 -96 -85 -392 -85 -403 0 -10 11 -15 34 -15 31 0 34 3
40 38 13 68 15 72 51 72 36 0 38 -4 51 -72 6 -35 9 -38 40 -38 22 0 34 5 34
14 0 14 -76 377 -86 409 -4 12 -16 17 -39 17 -28 0 -36 -5 -40 -22z m64 -245
c1 -7 -11 -13 -25 -13 -24 0 -26 3 -21 29 3 15 9 52 13 82 l8 54 12 -70 c7
-38 13 -76 13 -82z"/>
<path d="M870 1850 l0 -220 90 0 c89 0 90 0 90 25 0 24 -3 25 -55 25 l-55 0 0
195 0 195 -35 0 -35 0 0 -220z"/>
<path d="M1070 1850 l0 -220 40 0 40 0 0 100 0 100 40 0 c36 0 40 3 40 25 0
23 -4 25 -40 25 l-40 0 0 70 0 70 55 0 c52 0 55 1 55 25 0 25 0 25 -95 25
l-95 0 0 -220z"/>
<path d="M1302 1873 c-23 -109 -45 -208 -48 -220 -6 -21 -3 -23 29 -23 33 0
37 3 46 38 6 20 11 45 11 55 0 13 9 17 40 17 31 0 40 -4 40 -17 0 -10 5 -35
11 -55 9 -35 13 -38 46 -38 31 0 35 3 30 21 -3 11 -25 110 -48 220 l-42 199
-37 0 -36 0 -42 -197z m94 -18 l10 -65 -26 0 -26 0 10 65 c5 36 12 65 16 65 4
0 11 -29 16 -65z"/>
<path d="M1540 1850 l0 -220 85 0 c79 0 87 2 116 28 24 21 32 38 36 75 6 52
-10 103 -38 117 -17 10 -16 12 7 35 18 19 24 35 24 70 0 88 -37 115 -155 115
l-75 0 0 -220z m148 154 c15 -10 22 -25 22 -48 0 -39 -23 -63 -68 -72 l-32 -6
0 71 c0 71 0 71 28 71 15 0 38 -7 50 -16z m2 -194 c45 -45 13 -130 -50 -130
l-30 0 0 75 0 75 30 0 c17 0 39 -9 50 -20z"/>
<path d="M1820 1850 l0 -220 35 0 35 0 0 220 0 220 -35 0 -35 0 0 -220z"/>
<path d="M1950 2045 c0 -24 2 -25 64 -25 l65 0 -70 -169 c-38 -94 -69 -181
-69 -195 l0 -26 105 0 105 0 0 25 c0 24 -2 25 -69 25 l-70 0 66 158 c36 86 68
174 71 195 l4 37 -101 0 -101 0 0 -25z"/>
<path d="M2260 2040 c0 -28 2 -30 40 -30 l40 0 0 -190 0 -190 35 0 35 0 0 190
0 190 40 0 c38 0 40 2 40 30 l0 30 -115 0 -115 0 0 -30z"/>
<path d="M2510 1850 l0 -220 35 0 35 0 0 220 0 220 -35 0 -35 0 0 -220z"/>
<path d="M2640 1850 l0 -220 40 0 40 0 1 128 1 127 19 -95 c10 -52 21 -110 24
-127 5 -28 10 -33 34 -33 28 0 29 1 46 98 31 174 33 176 34 35 l1 -133 35 0
35 0 0 221 0 220 -47 -3 -48 -3 -25 -137 c-14 -75 -27 -139 -31 -142 -3 -3
-15 52 -28 122 -31 176 -24 162 -82 162 l-49 0 0 -220z"/>
<path d="M3010 1850 l0 -220 90 0 c89 0 90 0 90 25 0 24 -3 25 -55 25 l-55 0
0 75 0 75 40 0 c36 0 40 3 40 25 0 23 -4 25 -40 25 l-40 0 0 70 0 70 55 0 c52
0 55 1 55 25 0 25 -1 25 -90 25 l-90 0 0 -220z"/>
<path d="M3239 2041 c-23 -24 -29 -38 -29 -73 0 -54 20 -83 90 -139 71 -56 80
-68 77 -104 -2 -25 -7 -31 -30 -33 -36 -4 -55 12 -63 54 -6 31 -9 33 -33 28
-41 -10 -46 -19 -32 -63 17 -57 52 -81 117 -81 42 0 59 5 83 26 26 22 31 33
31 70 0 62 -19 94 -94 153 -67 54 -82 77 -71 111 13 42 95 13 95 -33 0 -18 11
-20 48 -11 34 9 29 49 -12 90 -31 31 -40 34 -91 34 -49 0 -60 -4 -86 -29z"/>
<path d="M3490 1850 l0 -220 35 0 35 0 0 100 0 100 55 0 55 0 0 -100 0 -100
35 0 35 0 0 220 0 220 -35 0 -35 0 0 -95 0 -95 -55 0 -55 0 0 95 0 95 -35 0
-35 0 0 -220z"/>
<path d="M3790 1850 l0 -220 90 0 c89 0 90 0 90 25 0 24 -3 25 -55 25 l-55 0
0 75 0 75 40 0 c36 0 40 3 40 25 0 23 -4 25 -40 25 l-40 0 0 70 0 70 55 0 c52
0 55 1 55 25 0 25 -1 25 -90 25 l-90 0 0 -220z"/>
<path d="M4000 1850 l0 -220 90 0 c89 0 90 0 90 25 0 24 -3 25 -55 25 l-55 0
0 75 0 75 40 0 c36 0 40 3 40 25 0 23 -4 25 -40 25 l-40 0 0 70 0 70 34 0 c18
0 61 -3 95 -6 l61 -7 0 -188 0 -189 35 0 35 0 0 190 0 190 40 0 c38 0 40 2 40
30 l0 30 -205 0 -205 0 0 -220z"/>
</g>
</svg>
